<svg viewBox="0 0 240.5 360.5" xmlns="http://www.w3.org/2000/svg"><rect fill="#fff" height="360" rx="40" stroke="#000" stroke-width=".5" width="240" x=".25" y=".25"/><rect fill="#55f" height="320" rx="20" width="200" x="20.25" y="20.25"/><g fill-rule="evenodd"><path d="m180.25 80.25a160 160 0 0 0 -160 160 40 40 0 0 0 40 40 160 160 0 0 0 160-160 40 40 0 0 0 -40-40z" fill="#fff"/><path d="m120.25 120.25a40 40 0 0 0 -40 40v40a40 40 0 0 0 80 0v-40a40 40 0 0 0 -40-40zm0 20a20 20 0 0 1 20 20v40a20 20 0 0 1 -40 0v-40a20 20 0 0 1 20-20z" fill="#55f"/><path d="m50.25 30.25a20 20 0 0 0 -20 20v20a20 20 0 0 0 40 0v-20a20 20 0 0 0 -20-20zm0 10a10 10 0 0 1 10 10v20a10 10 0 0 1 -20 0v-20a10 10 0 0 1 10-10z" fill="#fff"/><path d="m190.25 270.25a20 20 0 0 0 -20 20v20a20 20 0 0 0 40 0v-20a20 20 0 0 0 -20-20zm0 10a10 10 0 0 1 10 10v20a10 10 0 0 1 -20 0v-20a10 10 0 0 1 10-10z" fill="#fff"/></g></svg>