<svg viewBox="0 0 240.5 360.5" xmlns="http://www.w3.org/2000/svg"><rect fill="#fff" height="360" rx="40" stroke="#000" stroke-width=".5" width="240" x=".25" y=".25"/><rect fill="#fa0" height="320" rx="20" width="200" x="20.25" y="20.25"/><g fill-rule="evenodd"><path d="m180.25 80.25a160 160 0 0 0 -160 160 40 40 0 0 0 40 40 160 160 0 0 0 160-160 40 40 0 0 0 -40-40z" fill="#fff"/><path d="m112.25 120.25-20 20v24l20-20v96h20v-120z" fill="#fa0"/><path d="m40.25 30.25-10 10v12l10-10v48h10v-60z" fill="#fff"/><path d="m200.25 330.25 10-10v-12l-10 10v-48h-10v60z" fill="#fff"/></g></svg>