<svg viewBox="0 0 240.5 360.5" xmlns="http://www.w3.org/2000/svg"><rect fill="#fff" height="360" rx="40" stroke="#000" stroke-width=".5" width="240" x=".25" y=".25"/><rect fill="#fa0" height="320" rx="20" width="200" x="20.25" y="20.25"/><path d="m180.25 80.25a160 160 0 0 0 -160 160 40 40 0 0 0 40 40 160 160 0 0 0 160-160 40 40 0 0 0 -40-40z" fill="#fff" fill-rule="evenodd"/><path d="m116.25 120.25a39.91 39.91 0 0 0 -40 40v4h20v-4a20 20 0 0 1 40 0c0 4.51-3.74 13.36-7.65 16.44-21.22 16.7-21 13.94-52.35 35.56v28h80v-28h-20v8h-36c24.76-17.43 26.57-17 46-34.37 6.22-5.57 10-16.61 10-25.63a39.91 39.91 0 0 0 -40-40z" fill="#fa0"/><g fill="#fff"><path d="m50.25 30.25a20 20 0 0 0 -20 20v2h10v-2a10 10 0 0 1 20 0c0 2.26-1.87 6.68-3.82 8.22-10.61 8.35-10.5 7-26.18 17.78v14h40v-14h-10v4h-18c12.38-8.72 13.29-8.51 23-17.19 3.1-2.78 5-8.3 5-12.81a20 20 0 0 0 -20-20z"/><path d="m190.25 330.25a20 20 0 0 0 20-20v-2h-10v2a10 10 0 0 1 -20 0c0-2.26 1.87-6.68 3.82-8.22 10.61-8.35 10.5-7 26.18-17.78v-14h-40v14h10v-4h18c-12.38 8.72-13.29 8.51-23 17.19-3.1 2.78-5 8.3-5 12.81a20 20 0 0 0 20 20z"/></g></svg>