<svg viewBox="0 0 240.5 360.5" xmlns="http://www.w3.org/2000/svg"><rect fill="#fff" height="360" rx="40" stroke="#000" stroke-width=".5" width="240" x=".25" y=".25"/><rect fill="#fa0" height="320" rx="20" width="200" x="20.25" y="20.25"/><path d="m180.25 80.25a160 160 0 0 0 -160 160 40 40 0 0 0 40 40 160 160 0 0 0 160-160 40 40 0 0 0 -40-40z" fill="#fff" fill-rule="evenodd"/><path d="m120.25 120.25a30 30 0 0 0 -30 30h20a10 10 0 1 1 10 10h-12v20h12a20 20 0 1 1 -20 20h-20a40 40 0 1 0 63.87-32 29.65 29.65 0 0 0 6.13-18 30 30 0 0 0 -30-30z" fill="#fa0"/><g fill="#fff"><path d="m50.25 30.25a15 15 0 0 0 -15 15h10a5 5 0 1 1 5 5h-6v10h6a10 10 0 1 1 -10 10h-10a20 20 0 1 0 31.94-16 14.83 14.83 0 0 0 3.06-9 15 15 0 0 0 -15-15z"/><path d="m190.25 330.25a15 15 0 0 0 15-15h-10a5 5 0 1 1 -5-5h6v-10h-6a10 10 0 1 1 10-10h10a20 20 0 1 0 -31.94 16 14.83 14.83 0 0 0 -3.06 9 15 15 0 0 0 15 15z"/></g></svg>