<svg viewBox="0 0 240.5 360.5" xmlns="http://www.w3.org/2000/svg"><rect fill="#fff" height="360" rx="40" stroke="#000" stroke-width=".5" width="240" x=".25" y=".25"/><rect fill="#5a5" height="320" rx="20" width="200" x="20.25" y="20.25"/><path d="m180.25 80.25a160 160 0 0 0 -160 160 40 40 0 0 0 40 40 160 160 0 0 0 160-160 40 40 0 0 0 -40-40z" fill="#fff" fill-rule="evenodd"/><path d="m115.45 120.25-39.2 80v20h48v20h20v-20h12v-20h-12v-40h-20v40h-27.2l39.2-80z" fill="#5a5"/><g fill="#fff"><path d="m49.45 30.25-19.6 40v10h24v10h10v-10h6v-10h-6v-20h-10v20h-13.6l19.6-40z"/><path d="m190.25 330.25 19.6-40v-10h-24v-10h-10v10h-6v10h6v20h10v-20h13.6l-19.6 40z"/></g></svg>