<svg viewBox="0 0 240.5 360.5" xmlns="http://www.w3.org/2000/svg"><rect fill="#fff" height="360" rx="40" stroke="#000" stroke-width=".5" width="240" x=".25" y=".25"/><rect fill="#f55" height="320" rx="20" width="200" x="20.25" y="20.25"/><path d="m180.25 80.25a160 160 0 0 0 -160 160 40 40 0 0 0 40 40 160 160 0 0 0 160-160 40 40 0 0 0 -40-40z" fill="#fff" fill-rule="evenodd"/><path d="m84.25 120.25v60h40a20 20 0 1 1 -20 20h-20a40 40 0 1 0 40-40h-20v-20h56v-20z" fill="#f55"/><g fill="#fff"><path d="m30.25 30.25v30h20a10 10 0 1 1 -10 10h-10a20 20 0 1 0 20-20h-10v-10h28v-10z"/><path d="m210.25 330.25v-30h-20a10 10 0 1 1 10-10h10a20 20 0 1 0 -20 20h10v10h-28v10z"/></g></svg>