<svg viewBox="0 0 240.5 360.5" xmlns="http://www.w3.org/2000/svg"><rect fill="#fff" height="360" rx="40" stroke="#000" stroke-width=".5" width="240" x=".25" y=".25"/><rect fill="#fa0" height="320" rx="20" width="200" x="20.25" y="20.25"/><g fill-rule="evenodd"><path d="m180.25 80.25a160 160 0 0 0 -160 160 40 40 0 0 0 40 40 160 160 0 0 0 160-160 40 40 0 0 0 -40-40z" fill="#fff"/><path d="m86.25 120.25v40h20v-20h40l-40 100h20l40-100v-20z" fill="#fa0"/><path d="m30.25 30.25v20h10v-10h20l-20 50h10l20-50v-10z" fill="#fff"/><path d="m210.25 330.25v-20h-10v10h-20l20-50h-10l-20 50v10z" fill="#fff"/></g></svg>