<svg viewBox="0 0 240.5 360.5" xmlns="http://www.w3.org/2000/svg"><rect fill="#fff" height="360" rx="40" stroke="#000" stroke-width=".5" width="240" x=".25" y=".25"/><rect fill="#55f" height="320" rx="20" width="200" x="20.25" y="20.25"/><g fill-rule="evenodd"><path d="m180.25 80.25a160 160 0 0 0 -160 160 40 40 0 0 0 40 40 160 160 0 0 0 160-160 40 40 0 0 0 -40-40z" fill="#fff"/><path d="m120.25 120.25a40 40 0 1 0 20 74.63v5.37a19.89 19.89 0 0 1 -37.75 8.87l-18 9a40 40 0 0 0 75.75-17.87v-40a40 40 0 0 0 -40-40zm0 20a20 20 0 1 1 -20 20 20 20 0 0 1 20-20zm-20 104v8h40v-8z" fill="#55f"/><path d="m50.25 90.25a20 20 0 0 0 20-20v-20a20 20 0 1 0 -10 17.31v2.69a9.94 9.94 0 0 1 -18.87 4.44l-9 4.5a19.92 19.92 0 0 0 17.87 11.06zm0-30a10 10 0 1 1 10-10 10 10 0 0 1 -10 10z" fill="#fff"/><path d="m190.25 270.25a20 20 0 0 0 -20 20v20a20 20 0 1 0 10-17.31v-2.69a9.94 9.94 0 0 1 18.87-4.44l9-4.5a19.92 19.92 0 0 0 -17.87-11.06zm0 30a10 10 0 1 1 -10 10 10 10 0 0 1 10-10z" fill="#fff"/></g></svg>