<svg viewBox="0 0 240.5 360.5" xmlns="http://www.w3.org/2000/svg"><rect fill="#fff" height="360" rx="40" stroke="#000" stroke-width=".5" width="240" x=".25" y=".25"/><rect fill="#5555fd" height="320" rx="20" width="200" x="20.25" y="20.25"/><g fill-rule="evenodd"><path d="m180.25 80.25a160 160 0 0 0 -160 160 40 40 0 0 0 40 40 160 160 0 0 0 160-160 40 40 0 0 0 -40-40z" fill="#fff"/><path d="m93.11 150.25h40c5.52 0 8.84 4 7.42 9l-20.53 71.97c-1.42 5-7 9-12.58 9h-40c-5.52 0-8.84-4-7.42-9l20.56-71.94c1.44-4.99 7.02-9.03 12.55-9.03z" fill="#fff" stroke="#000" stroke-width=".51"/><path d="m100.25 160.25h20c5.52 0 8.84 4 7.42 9l-14.84 51.94c-1.43 5-7.06 9-12.58 9h-20c-5.52 0-8.85-4-7.42-9l14.84-51.94c1.42-4.96 7.06-9 12.58-9z" fill="#5555fd"/><path d="m133.11 120.25h40c5.52 0 8.84 4 7.42 9l-20.53 71.97c-1.42 5-7.05 9-12.58 9h-40c-5.52 0-8.84-4-7.42-9l20.56-71.94c1.44-4.99 7.02-9.03 12.55-9.03z" fill="#fff" stroke="#000" stroke-width=".51"/><path d="m140.25 130.25h20c5.52 0 8.85 4 7.42 9l-14.84 51.94c-1.42 5-7.06 9-12.58 9h-20c-5.52 0-8.84-4-7.42-9l14.84-51.94c1.43-4.96 7.06-9 12.58-9z" fill="#5555fd"/><path d="m34.25 50.25v10h-10v10h10v10h10v-10h10v-10h-10v-10z" fill="#fff"/></g><path d="m80.25 30.25a20 20 0 0 0 -20 20v2h10v-2a10 10 0 0 1 20 0c0 2.25-1.87 6.68-3.82 8.22-10.61 8.35-10.5 7-26.18 17.78v14h40v-14h-10v4h-18c12.38-8.72 13.29-8.51 23-17.19 3.1-2.78 5-8.3 5-12.81a20 20 0 0 0 -20-20z" fill="#fff"/><path d="m206.25 310.25v-10h10v-10h-10v-10h-10v10h-10v10h10v10z" fill="#fff" fill-rule="evenodd"/><path d="m160.25 330.25a20 20 0 0 0 20-20v-2h-10v2a10 10 0 0 1 -20 0c0-2.25 1.87-6.68 3.82-8.22 10.61-8.35 10.5-7 26.18-17.78v-14h-40v14h10v-4h18c-12.38 8.72-13.29 8.51-23 17.19-3.1 2.78-5 8.3-5 12.81a20 20 0 0 0 20 20z" fill="#fff"/></svg>