<svg viewBox="0 0 240.5 360.5" xmlns="http://www.w3.org/2000/svg"><rect fill="#fff" height="360" rx="40" stroke="#000" stroke-width=".5" width="240" x=".25" y=".25"/><rect height="320" rx="20" width="200" x="20.25" y="20.25"/><path d="m180.25 80.25a160 160 0 0 0 -160 160 40 40 0 0 0 40 40 160 160 0 0 0 160-160 40 40 0 0 0 -40-40z" fill="#fff" fill-rule="evenodd"/><path d="m79.85 30.25-19.6 40v10h24v10h10v-10h6v-10h-6v-20h-10v20h-13.6l19.6-40z" fill="#fff"/><path d="m34.25 50.25v10h-10v10h10v10h10v-10h10v-10h-10v-10z" fill="#fff" fill-rule="evenodd"/><path d="m160.65 330.25 19.6-40v-10h-24v-10h-10v10h-6v10h6v20h10v-20h13.6l-19.6 40z" fill="#fff"/><g fill-rule="evenodd"><path d="m206.25 310.25v-10h10v-10h-10v-10h-10v10h-10v10h10v10z" fill="#fff"/><path d="m83.11 130.25h40c5.52 0 8.84 4 7.42 9l-20.53 71.97c-1.42 5-7 9-12.58 9h-40c-5.52 0-8.84-4-7.42-9l20.56-71.94c1.44-4.99 7.02-9.03 12.55-9.03z" fill="#fff" stroke="#000" stroke-width=".51"/><path d="m90.25 140.25h20c5.52 0 8.84 4 7.42 9l-14.84 51.94c-1.43 5-7.06 9-12.58 9h-20c-5.52 0-8.85-4-7.42-9l14.84-51.94c1.42-4.96 7.06-9 12.58-9z" fill="#f55"/><path d="m123.11 100.25h40c5.52 0 8.84 4 7.42 9l-20.53 71.97c-1.42 5-7.05 9-12.58 9h-40c-5.52 0-8.84-4-7.42-9l20.56-71.94c1.44-4.99 7.02-9.03 12.55-9.03z" fill="#fff" stroke="#000" stroke-width=".51"/><path d="m130.25 110.25h20c5.52 0 8.84 4 7.42 9l-14.84 51.94c-1.43 5-7.06 9-12.58 9h-20c-5.52 0-8.85-4-7.42-9l14.84-51.94c1.42-4.96 7.06-9 12.58-9z" fill="#55f"/><path d="m113.11 160.25h40c5.52 0 8.84 4 7.42 9l-20.53 71.97c-1.42 5-7.05 9-12.58 9h-40c-5.52 0-8.84-4-7.42-9l20.56-71.94c1.44-4.99 7.02-9.03 12.55-9.03z" fill="#fff" stroke="#000" stroke-width=".51"/><path d="m120.25 170.25h20c5.52 0 8.84 4 7.42 9l-14.84 51.94c-1.43 5-7.06 9-12.58 9h-20c-5.52 0-8.85-4-7.42-9l14.84-51.94c1.42-4.96 7.06-9 12.58-9z" fill="#fa0"/><path d="m153.11 130.25h40c5.52 0 8.84 4 7.42 9l-20.53 71.97c-1.42 5-7.05 9-12.58 9h-40c-5.52 0-8.84-4-7.42-9l20.56-71.94c1.44-4.99 7.02-9.03 12.55-9.03z" fill="#fff" stroke="#000" stroke-width=".51"/><path d="m160.25 140.25h20c5.52 0 8.84 4 7.42 9l-14.84 51.94c-1.43 5-7.06 9-12.58 9h-20c-5.52 0-8.85-4-7.42-9l14.84-51.94c1.42-4.96 7.06-9 12.58-9z" fill="#5a5"/></g></svg>