<svg viewBox="0 0 240.5 360.5" xmlns="http://www.w3.org/2000/svg"><rect fill="#fff" height="360" rx="40" stroke="#000" stroke-width=".5" width="240" x=".25" y=".25"/><rect fill="#5a5" height="320" rx="20" width="200" x="20.25" y="20.25"/><path d="m180.25 80.25a160 160 0 0 0 -160 160 40 40 0 0 0 40 40 160 160 0 0 0 160-160 40 40 0 0 0 -40-40z" fill="#fff" fill-rule="evenodd"/><path d="m120.25 115.25 10 10-40 40c-10 10-10 30 0 40l20-20 40-40 10 10v-40z" fill="#5a5"/><path d="m120.25 245.25-10-10 40-40c10-10 10-30 0-40l-20 20-40 40-10-10v40z" fill="#5a5"/><g fill="#fff"><path d="m50.25 30.25 5 5-20 20c-5 5-5 15 0 20l10-10 20-20 5 5v-20z"/><path d="m50.25 95.25-5-5 20-20c5-5 5-15 0-20l-10 10-20 20-5-5v20z"/><path d="m190.25 265.25 5 5-20 20c-5 5-5 15 0 20l10-10 20-20 5 5v-20z"/><path d="m190.25 330.25-5-5 20-20c5-5 5-15 0-20l-10 10-20 20-5-5v20z"/></g></svg>