<svg viewBox="0 0 240.5 360.5" xmlns="http://www.w3.org/2000/svg"><rect fill="#fff" height="360" rx="40" stroke="#000" stroke-width=".5" width="240" x=".25" y=".25"/><rect fill="#f55" height="320" rx="20" width="200" x="20.25" y="20.25"/><g fill-rule="evenodd"><path d="m180.25 80.25a160 160 0 0 0 -160 160 40 40 0 0 0 40 40 160 160 0 0 0 160-160 40 40 0 0 0 -40-40z" fill="#fff"/><path d="m120.38 120.25a60 60 0 1 0 42.37 17.62 59.9 59.9 0 0 0 -42.37-17.62zm-.13 20a40.08 40.08 0 0 1 20.25 5.5l-54.75 54.75a40 40 0 0 1 34.5-60.25zm34.5 19.63a40 40 0 0 1 -54.87 54.75z" fill="#f55"/><path d="m60.31 30.25a30 30 0 1 0 21.19 8.81 29.94 29.94 0 0 0 -21.19-8.81zm-.06 10a20 20 0 0 1 10.12 2.75l-27.37 27.37a20 20 0 0 1 3.13-24.31 19.82 19.82 0 0 1 14.12-5.81zm17.25 9.81a20 20 0 0 1 -27.44 27.37z" fill="#fff"/><path d="m180.31 270.25a30 30 0 1 0 21.19 8.81 29.94 29.94 0 0 0 -21.19-8.81zm-.06 10a20 20 0 0 1 10.12 2.75l-27.37 27.37a20 20 0 0 1 3.13-24.31 19.82 19.82 0 0 1 14.12-5.81zm17.25 9.81a20 20 0 0 1 -27.44 27.37z" fill="#fff"/></g></svg>