<svg viewBox="0 0 242 362" xmlns="http://www.w3.org/2000/svg"><rect fill="#fff" height="360" rx="40" stroke="#000" stroke-width="2" width="240" x="1" y="1"/><rect height="320" rx="20" width="200" x="21" y="21"/><g fill-rule="evenodd"><path d="m181 81a160 160 0 0 0 -160 160 40 40 0 0 0 40 40 160 160 0 0 0 160-160 40 40 0 0 0 -40-40z" fill="#fff"/><path d="m32.75 181a159.39 159.39 0 0 0 -11.75 60 40 40 0 0 0 40 40l60-100z" fill="#fa0"/><path d="m121 181-60 100a160 160 0 0 0 148.25-100z" fill="#0a0"/><path d="m181 81a160 160 0 0 0 -148.25 100h88.25z" fill="#f55"/><path d="m181 81-60 100h88.25a159.39 159.39 0 0 0 11.75-60 40 40 0 0 0 -40-40z" fill="#55f"/><path d="m33.94 56a39.82 39.82 0 0 0 -2.94 15 10 10 0 0 0 10 10l15-25z" fill="#fa0"/><path d="m56 56-15 25a40 40 0 0 0 37.06-25z" fill="#0a0"/><path d="m71 31a40 40 0 0 0 -37.06 25h22.06z" fill="#f55"/><path d="m71 31-15 25h22.06a39.82 39.82 0 0 0 2.94-15 10 10 0 0 0 -10-10z" fill="#55f"/><path d="m163.94 306a39.82 39.82 0 0 0 -2.94 15 10 10 0 0 0 10 10l15-25z" fill="#fa0"/><path d="m186 306-15 25a40 40 0 0 0 37.06-25z" fill="#0a0"/><path d="m201 281a40 40 0 0 0 -37.06 25h22.06z" fill="#f55"/><path d="m201 281-15 25h22.06a39.82 39.82 0 0 0 2.94-15 10 10 0 0 0 -10-10z" fill="#55f"/></g><path d="m181 81a160.23 160.23 0 0 0 -160 160 40 40 0 0 0 40 40 160 160 0 0 0 148.25-100 159.39 159.39 0 0 0 11.75-60 40 40 0 0 0 -40-40z" fill="none" stroke="#fff" stroke-width="4"/><path d="m71 31a40.06 40.06 0 0 0 -40 40 10 10 0 0 0 10 10 40.06 40.06 0 0 0 40-40 10 10 0 0 0 -10-10z" fill="none" stroke="#fff" stroke-width="4"/><path d="m201 281a40.06 40.06 0 0 0 -40 40 10 10 0 0 0 10 10 40.06 40.06 0 0 0 40-40 10 10 0 0 0 -10-10z" fill="none" stroke="#fff" stroke-width="4"/></svg>